<svg width="32" height="32" viewBox="0 0 32 32" fill="none" xmlns="http://www.w3.org/2000/svg">
<path d="M30 19C30 12 26.5 7 22 7C18.5 7 16 11 16 11C14 14 14 19.5 17 13.5C17 13.5 19.5 9.5 22 9.5C25.5 9.5 27.3443 15.5 27.3443 19C27.3443 20 27 22 25 22V25C27 25 30 23.5 30 19Z" fill="url(#paint0_radial_767_192)"/>
<path d="M10 7V10C6.8 10.4 5 15.5 5 19C5 20 5.5 22 7 22C9.5 22 12.3747 16.48 15 12.4426C16.3937 10.2993 17.7809 12.1396 16.7231 14C14.2167 18.4081 11.707 25 7 25C5 25 2 23.5 2 19C2 10 7.5 7 10 7Z" fill="url(#paint1_radial_767_192)"/>
<path d="M25 22C21.5 22 17.5 7 10 7V10C16 10 18.5 25 25 25V22Z" fill="#0768E1"/>
<defs>
<radialGradient id="paint0_radial_767_192" cx="0" cy="0" r="1" gradientUnits="userSpaceOnUse" gradientTransform="translate(25 24) rotate(-101.31) scale(17.8466 13.8807)">
<stop stop-color="#0768E1"/>
<stop offset="1" stop-color="#0082FB"/>
</radialGradient>
<radialGradient id="paint1_radial_767_192" cx="0" cy="0" r="1" gradientUnits="userSpaceOnUse" gradientTransform="translate(10 9) rotate(154.537) scale(11.6297 6.09968)">
<stop stop-color="#0768E1"/>
<stop offset="1" stop-color="#0082FB"/>
</radialGradient>
</defs>
</svg>
